# xmcd
# 
# Track frame offsets:
#     150
#     16797
#     34602
#     48657
#     64895
#     82785
#     103132
#     116207
#     135105
#     146437
#     161652
#     178405
#     196135
#     215955
#     236775
#     257200
#     269350
#     280057
#     294695
# 
# Disc length: 4051
# 
# Revision: 7
# Processed by: cddbd v1.5.2PL0 Copyright (c) Steve Scherf et al.
# Submitted via: fre:ac v1.0.31
# 
DISCID=220fd113
DTITLE=Suveniir - Suveniir
DYEAR=1993
DGENRE=Pop
TTITLE0=Vana tango
TTITLE1=Tulen kord
TTITLE2=Uinu, väikemees
TTITLE3=Üksindus
TTITLE4=Kahekesi
TTITLE5=Kadunud sõnad
TTITLE6=Ära unusta mind
TTITLE7=Sügisserenaad
TTITLE8=Vana õunapuu
TTITLE9=Kuuvalge öö
TTITLE10=Lumine mälestus
TTITLE11=Sind vaadates
TTITLE12=Õitsegu rukilill
TTITLE13=Jaaniöö
TTITLE14=Kallile naisele
TTITLE15=Maarjamaa jaaniöö
TTITLE16=Suvisel ööl
TTITLE17=Leib ja ema peod
TTITLE18=Aastavahetus
EXTD=
EXTT0=
EXTT1=
EXTT2=
EXTT3=
EXTT4=
EXTT5=
EXTT6=
EXTT7=
EXTT8=
EXTT9=
EXTT10=
EXTT11=
EXTT12=
EXTT13=
EXTT14=
EXTT15=
EXTT16=
EXTT17=
EXTT18=
PLAYORDER=
